<svg xmlns="http://www.w3.org/2000/svg" xmlns:xlink="http://www.w3.org/1999/xlink" version="1.1" id="Layer_1" x="0px" y="0px" viewBox="0 0 512 512" style="enable-background:new 0 0 512 512;" xml:space="preserve">
<style type="text/css">
	.st0{fill:#1D2E5C;}
	.st1{fill:none;stroke:#FCB62E;stroke-width:10.9976;stroke-miterlimit:10;}
	.st2{fill:#FCB630;}
	.st3{fill:none;stroke:#FCB630;stroke-width:10.9976;stroke-miterlimit:10;}
</style>
<g>
	<path class="st0" d="M438.8,506.8H72.5c-37,0-67-30-67-67V73.5c0-37,30-67,67-67h366.3c37,0,67,30,67,67v366.3   C505.8,476.8,475.8,506.8,438.8,506.8z"/>
	<path class="st1" d="M439.6,506.5H73.3c-37,0-67-30-67-67V73.2c0-37,30-67,67-67h366.3c37,0,67,30,67,67v366.3   C506.6,476.5,476.6,506.5,439.6,506.5z"/>
	<circle class="st2" cx="390.1" cy="160.2" r="12.3"/>
	<circle class="st2" cx="121.3" cy="352.2" r="12.3"/>
	<path class="st3" d="M161.7,328.6c0,0,103.8,0.2,108.1-0.2c4.3-0.4,23.3-1.1,24.5-24c0.8-14-8.3-19.3-15.5-21.3   c-4.6-1.3-8.4-1.2-8.4-1.2l-37.2,0c-10.9,0-21.9-1.6-32.1-5.7C135,249.5,140.5,154,210,134.2c8-2.3,16.4-3.1,24.7-3.1l113.1,0v27   l-95.3,0c-6.1,0-12.3,0.6-18.4,1.4c-63.1,9-63.1,89,3.9,94c1.9,0.1,4.5,0.5,6.8,0.6c1.3,0.1,5.3,0.3,6.3,0.3l7.9,0.2"/>
	<path class="st3" d="M349.2,185.6H245c-4.9,0-9.8,1.3-13.6,4.3c-3.8,3-7.5,7.9-8.2,16c-0.8,9.2,4.3,14.6,9.6,17.7   c4.7,2.8,10.1,3.9,15.5,3.9h39.5c7.1,0,14.3,0.7,21.2,2.4c82.2,21.1,69.1,148.9-19.2,152.2c-0.5,0-120.5,0-125.4,0v-27   c4.1,0,98.1-0.3,105.2,0c85,3.5,76.1-97.8,14.4-100.3"/>
</g>
</svg>